<svg width="53" height="51" viewBox="0 0 53 51" fill="none" xmlns="http://www.w3.org/2000/svg">
<g clip-path="url(#clip0_2035_355)">
<path d="M11.0417 0.651176C10.5558 1.1413 10.1583 2.03242 10.1583 2.65622C10.1583 3.72557 10.07 3.77013 6.84583 3.77013C5.035 3.77013 3.0475 3.99291 2.42917 4.30481C0.0441667 5.41872 0 5.68605 0 26.1375C0 44.0046 0.0441667 45.074 0.883333 46.4107C1.325 47.1681 2.12 48.0592 2.60583 48.3266C3.18 48.6385 6.84583 48.7276 13.1175 48.683C21.3325 48.5494 22.7458 48.4602 22.7458 47.881C22.7458 47.3018 21.3325 47.1681 13.4267 46.9899C5.035 46.8117 3.975 46.678 3.13583 45.9205C2.20833 45.074 2.20833 44.7621 2.20833 29.5238V14.0181H26.5H50.7917V29.5238C50.7917 44.7621 50.7917 45.074 49.8642 45.9205C49.025 46.678 47.965 46.8117 39.5733 46.9899C31.6675 47.1681 30.2542 47.3018 30.2542 47.881C30.2542 48.4602 31.6675 48.5494 39.8825 48.683C46.1542 48.7276 49.82 48.6385 50.3942 48.3266C50.88 48.0592 51.675 47.1681 52.1167 46.4107C52.9558 45.074 53 44.0046 53 26.1375C53 5.68605 52.9558 5.41872 50.5708 4.30481C49.9525 3.99291 47.965 3.77013 46.1542 3.77013C42.93 3.77013 42.8417 3.72557 42.8417 2.65622C42.8417 0.116497 39.3525 -1.17564 37.5417 0.651176C37.0558 1.1413 36.6583 2.03242 36.6583 2.65622C36.6583 3.77013 36.6142 3.77013 33.125 3.77013C29.6358 3.77013 29.5917 3.77013 29.5917 2.65622C29.5917 2.03242 29.1942 1.1413 28.7083 0.651176C26.8975 -1.17564 23.4083 0.116497 23.4083 2.65622C23.4083 3.77013 23.3642 3.77013 19.875 3.77013C16.3858 3.77013 16.3417 3.77013 16.3417 2.65622C16.3417 1.1413 14.8842 -0.239952 13.25 -0.239952C12.4992 -0.239952 11.5275 0.161053 11.0417 0.651176ZM14.045 4.79493C14.1775 7.55743 14.0892 7.78021 13.25 7.78021C12.455 7.78021 12.3667 7.51287 12.3667 4.97315C12.3667 3.41367 12.4992 1.98787 12.6758 1.80964C13.4267 1.05218 13.9125 2.07698 14.045 4.79493ZM27.295 4.79493C27.4275 7.55743 27.3392 7.78021 26.5 7.78021C25.705 7.78021 25.6167 7.51287 25.6167 4.97315C25.6167 3.41367 25.7492 1.98787 25.9258 1.80964C26.6767 1.05218 27.1625 2.07698 27.295 4.79493ZM40.545 4.79493C40.6775 7.55743 40.5892 7.78021 39.75 7.78021C38.955 7.78021 38.8667 7.51287 38.8667 4.97315C38.8667 3.41367 38.9992 1.98787 39.1758 1.80964C39.9267 1.05218 40.4125 2.07698 40.545 4.79493ZM10.1583 6.97819C10.1583 8.31488 11.8367 10.008 13.2058 10.008C14.6192 10.008 16.3417 8.35944 16.3417 7.02275C16.3417 6.04251 16.4742 5.99795 19.875 5.99795C23.2317 5.99795 23.4083 6.04251 23.4083 6.97819C23.4083 8.31488 25.0867 10.008 26.4558 10.008C27.8692 10.008 29.5917 8.35944 29.5917 7.02275C29.5917 6.04251 29.7242 5.99795 33.125 5.99795C36.4817 5.99795 36.6583 6.04251 36.6583 6.97819C36.6583 8.31488 38.3367 10.008 39.7058 10.008C41.1192 10.008 42.8417 8.35944 42.8417 7.02275C42.8417 6.04251 42.9742 5.99795 46.2867 5.99795C48.3625 5.99795 49.9525 6.22073 50.2617 6.53263C50.5708 6.84452 50.7917 8.22577 50.7917 9.65158V12.2359H26.5H2.20833V9.65158C2.20833 8.22577 2.42917 6.84452 2.73833 6.53263C3.0475 6.22073 4.6375 5.99795 6.71333 5.99795C9.98167 5.99795 10.1583 6.04251 10.1583 6.97819Z" fill="white"/>
<path d="M6.27251 18.3846C5.87501 18.652 5.74251 20.0332 5.83084 23.6423L5.96334 28.499L10.5567 28.6326C13.5158 28.7217 15.3267 28.5881 15.7242 28.2316C16.5192 27.5633 16.6075 19.3649 15.8125 18.5629C15.1942 17.9391 7.20001 17.8054 6.27251 18.3846ZM14.1342 23.375V26.4939H11.0425H7.95084V23.375V20.256H11.0425H14.1342V23.375Z" fill="white"/>
<path d="M21.7306 18.5629C21.1564 19.1421 20.9797 26.7167 21.4656 28.0088C21.6864 28.5881 22.5256 28.7217 26.2356 28.7217C29.1506 28.7217 30.9172 28.5435 31.2706 28.1871C31.9772 27.4742 31.9772 19.2758 31.2706 18.5629C30.5639 17.85 22.4372 17.85 21.7306 18.5629ZM29.5922 23.375V26.4939H26.5006H23.4089V23.375V20.256H26.5006H29.5922V23.375Z" fill="white"/>
<path d="M37.1887 18.5629C36.3937 19.3649 36.482 27.5633 37.277 28.2316C37.6745 28.5881 39.4854 28.7217 42.4445 28.6326L47.0379 28.499L47.1704 23.6423C47.2587 20.0332 47.1262 18.652 46.7287 18.3846C45.8012 17.8054 37.807 17.9391 37.1887 18.5629ZM45.0504 23.375V26.4939H41.9587H38.867V23.375V20.256H41.9587H45.0504V23.375Z" fill="white"/>
<path d="M6.05135 32.5982C5.87469 32.7318 5.74219 35.0488 5.74219 37.6776C5.74219 41.5986 5.87469 42.4897 6.44885 42.7125C7.72969 43.2026 15.238 43.0244 15.8122 42.4452C16.5189 41.7323 16.5189 33.5339 15.8122 32.821C15.238 32.2417 6.58135 32.0189 6.05135 32.5982ZM14.1339 37.6331V40.752H11.0422H7.95052V37.6331V34.5141H11.0422H14.1339V37.6331Z" fill="white"/>
<path d="M21.7292 32.8209C21.0226 33.5338 21.0226 41.7322 21.7292 42.4451C22.4359 43.158 30.5626 43.158 31.2692 42.4451C31.9759 41.7322 31.9759 33.5338 31.2692 32.8209C30.5626 32.108 22.4359 32.108 21.7292 32.8209ZM29.5909 37.633V40.752H26.4992H23.4076V37.633V34.5141H26.4992H29.5909V37.633Z" fill="white"/>
<path d="M37.1893 32.821C36.4826 33.5339 36.4384 41.6877 37.1893 42.4452C37.8076 43.0689 45.8018 43.2026 46.7293 42.6234C47.1268 42.356 47.2593 40.9748 47.1709 37.3657L47.0384 32.5091L42.4009 32.3754C39.1768 32.2863 37.5868 32.4199 37.1893 32.821ZM45.0509 37.6331V40.752H41.9593H38.8676V37.6331V34.5141H41.9593H45.0509V37.6331Z" fill="white"/>
<path d="M25.6172 47.881C25.6172 48.4603 25.9264 48.7722 26.5005 48.7722C27.0747 48.7722 27.3839 48.4603 27.3839 47.881C27.3839 47.3018 27.0747 46.9899 26.5005 46.9899C25.9264 46.9899 25.6172 47.3018 25.6172 47.881Z" fill="white"/>
</g>
<defs>
<clipPath id="clip0_2035_355">
<rect width="53" height="51" fill="white"/>
</clipPath>
</defs>
</svg>
