<svg width="204" height="48" viewBox="0 0 204 48" fill="none" xmlns="http://www.w3.org/2000/svg">
<path d="M69.3026 33.1177H66.4901L71.6108 18.5722H74.8636L79.9915 33.1177H77.179L73.294 21.5552H73.1804L69.3026 33.1177ZM69.3949 27.4146H77.0653V29.531H69.3949V27.4146ZM81.7937 37.2086V22.2086H84.3221V24.0126H84.4712C84.6038 23.7474 84.7908 23.4657 85.0323 23.1674C85.2738 22.8644 85.6005 22.6063 86.0124 22.3932C86.4244 22.1754 86.9499 22.0665 87.5891 22.0665C88.4319 22.0665 89.1919 22.282 89.869 22.7128C90.5508 23.139 91.0906 23.7711 91.4883 24.6092C91.8907 25.4425 92.092 26.4652 92.092 27.6773C92.092 28.8753 91.8955 29.8932 91.5025 30.7313C91.1095 31.5694 90.5745 32.2086 89.8974 32.6489C89.2203 33.0893 88.4532 33.3094 87.5962 33.3094C86.9712 33.3094 86.4528 33.2053 86.0408 32.9969C85.6289 32.7886 85.2975 32.5377 85.0465 32.2441C84.8003 31.9458 84.6085 31.6641 84.4712 31.3989H84.3647V37.2086H81.7937ZM84.315 27.6631C84.315 28.3686 84.4144 28.9865 84.6133 29.5168C84.8169 30.0471 85.1081 30.4614 85.4869 30.7597C85.8704 31.0533 86.3344 31.2001 86.8789 31.2001C87.4471 31.2001 87.9229 31.0485 88.3065 30.7455C88.69 30.4378 88.9788 30.0187 89.1729 29.4884C89.3718 28.9534 89.4712 28.3449 89.4712 27.6631C89.4712 26.986 89.3742 26.3847 89.18 25.8592C88.9859 25.3336 88.6971 24.9217 88.3136 24.6234C87.93 24.3251 87.4518 24.1759 86.8789 24.1759C86.3297 24.1759 85.8633 24.3203 85.4798 24.6092C85.0962 24.898 84.805 25.3028 84.6062 25.8236C84.4121 26.3445 84.315 26.9576 84.315 27.6631ZM94.2937 37.2086V22.2086H96.8221V24.0126H96.9712C97.1038 23.7474 97.2908 23.4657 97.5323 23.1674C97.7738 22.8644 98.1005 22.6063 98.5124 22.3932C98.9244 22.1754 99.4499 22.0665 100.089 22.0665C100.932 22.0665 101.692 22.282 102.369 22.7128C103.051 23.139 103.591 23.7711 103.988 24.6092C104.391 25.4425 104.592 26.4652 104.592 27.6773C104.592 28.8753 104.395 29.8932 104.002 30.7313C103.609 31.5694 103.074 32.2086 102.397 32.6489C101.72 33.0893 100.953 33.3094 100.096 33.3094C99.4712 33.3094 98.9528 33.2053 98.5408 32.9969C98.1289 32.7886 97.7975 32.5377 97.5465 32.2441C97.3003 31.9458 97.1085 31.6641 96.9712 31.3989H96.8647V37.2086H94.2937ZM96.815 27.6631C96.815 28.3686 96.9144 28.9865 97.1133 29.5168C97.3169 30.0471 97.6081 30.4614 97.9869 30.7597C98.3704 31.0533 98.8344 31.2001 99.3789 31.2001C99.9471 31.2001 100.423 31.0485 100.806 30.7455C101.19 30.4378 101.479 30.0187 101.673 29.4884C101.872 28.9534 101.971 28.3449 101.971 27.6631C101.971 26.986 101.874 26.3847 101.68 25.8592C101.486 25.3336 101.197 24.9217 100.814 24.6234C100.43 24.3251 99.9518 24.1759 99.3789 24.1759C98.8297 24.1759 98.3633 24.3203 97.9798 24.6092C97.5962 24.898 97.305 25.3028 97.1062 25.8236C96.9121 26.3445 96.815 26.9576 96.815 27.6631ZM111.552 33.3307C110.487 33.3307 109.564 33.0964 108.782 32.6276C108.001 32.1589 107.395 31.5031 106.964 30.6603C106.538 29.8175 106.325 28.8326 106.325 27.7057C106.325 26.5788 106.538 25.5916 106.964 24.7441C107.395 23.8966 108.001 23.2384 108.782 22.7697C109.564 22.3009 110.487 22.0665 111.552 22.0665C112.618 22.0665 113.541 22.3009 114.322 22.7697C115.103 23.2384 115.707 23.8966 116.133 24.7441C116.564 25.5916 116.779 26.5788 116.779 27.7057C116.779 28.8326 116.564 29.8175 116.133 30.6603C115.707 31.5031 115.103 32.1589 114.322 32.6276C113.541 33.0964 112.618 33.3307 111.552 33.3307ZM111.566 31.2711C112.144 31.2711 112.627 31.1125 113.015 30.7952C113.404 30.4733 113.692 30.0424 113.882 29.5026C114.076 28.9628 114.173 28.3615 114.173 27.6986C114.173 27.031 114.076 26.4273 113.882 25.8876C113.692 25.3431 113.404 24.9098 113.015 24.5878C112.627 24.2659 112.144 24.1049 111.566 24.1049C110.975 24.1049 110.482 24.2659 110.089 24.5878C109.701 24.9098 109.41 25.3431 109.216 25.8876C109.026 26.4273 108.931 27.031 108.931 27.6986C108.931 28.3615 109.026 28.9628 109.216 29.5026C109.41 30.0424 109.701 30.4733 110.089 30.7952C110.482 31.1125 110.975 31.2711 111.566 31.2711ZM118.962 33.1177V22.2086H121.533V33.1177H118.962ZM120.254 20.6603C119.847 20.6603 119.497 20.5253 119.203 20.2555C118.91 19.9808 118.763 19.6518 118.763 19.2682C118.763 18.88 118.91 18.5509 119.203 18.281C119.497 18.0064 119.847 17.8691 120.254 17.8691C120.666 17.8691 121.017 18.0064 121.305 18.281C121.599 18.5509 121.746 18.88 121.746 19.2682C121.746 19.6518 121.599 19.9808 121.305 20.2555C121.017 20.5253 120.666 20.6603 120.254 20.6603ZM126.748 26.7256V33.1177H124.176V22.2086H126.634V24.0623H126.762C127.013 23.4515 127.413 22.9662 127.962 22.6063C128.516 22.2465 129.2 22.0665 130.015 22.0665C130.767 22.0665 131.423 22.2275 131.982 22.5495C132.545 22.8715 132.981 23.3378 133.289 23.9486C133.601 24.5594 133.755 25.3004 133.75 26.1717V33.1177H131.179V26.5694C131.179 25.8402 130.99 25.2697 130.611 24.8577C130.237 24.4458 129.719 24.2398 129.056 24.2398C128.606 24.2398 128.206 24.3393 127.855 24.5381C127.51 24.7323 127.238 25.014 127.039 25.3833C126.845 25.7526 126.748 26.2001 126.748 26.7256ZM141.811 22.2086V24.1972H135.54V22.2086H141.811ZM137.088 19.5949H139.659V29.8364C139.659 30.1821 139.712 30.4472 139.816 30.6319C139.925 30.8118 140.067 30.9349 140.242 31.0012C140.417 31.0675 140.611 31.1006 140.824 31.1006C140.985 31.1006 141.132 31.0888 141.265 31.0651C141.402 31.0414 141.506 31.0201 141.577 31.0012L142.01 33.0111C141.873 33.0585 141.676 33.1106 141.421 33.1674C141.17 33.2242 140.862 33.2574 140.498 33.2668C139.854 33.2858 139.274 33.1887 138.757 32.9756C138.241 32.7578 137.832 32.4217 137.529 31.9671C137.23 31.5126 137.084 30.9444 137.088 30.2626V19.5949ZM143.962 33.1177V22.2086H146.419V24.0623H146.547C146.774 23.4373 147.151 22.9496 147.676 22.5992C148.202 22.2441 148.829 22.0665 149.558 22.0665C150.297 22.0665 150.92 22.2465 151.426 22.6063C151.938 22.9614 152.297 23.4467 152.506 24.0623H152.619C152.861 23.4562 153.268 22.9733 153.841 22.6134C154.419 22.2488 155.103 22.0665 155.893 22.0665C156.897 22.0665 157.716 22.3838 158.351 23.0182C158.985 23.6527 159.303 24.5784 159.303 25.7952V33.1177H156.724V26.193C156.724 25.5159 156.545 25.0211 156.185 24.7086C155.825 24.3913 155.384 24.2327 154.864 24.2327C154.243 24.2327 153.758 24.4269 153.408 24.8151C153.062 25.1986 152.889 25.6982 152.889 26.3137V33.1177H150.368V26.0864C150.368 25.523 150.197 25.0732 149.857 24.737C149.52 24.4008 149.08 24.2327 148.536 24.2327C148.166 24.2327 147.83 24.3274 147.527 24.5168C147.224 24.7015 146.982 24.9643 146.803 25.3052C146.623 25.6413 146.533 26.0343 146.533 26.4842V33.1177H143.962ZM166.74 33.3307C165.647 33.3307 164.702 33.1035 163.907 32.6489C163.116 32.1896 162.507 31.541 162.081 30.7029C161.655 29.8601 161.442 28.8681 161.442 27.7271C161.442 26.6049 161.655 25.62 162.081 24.7725C162.512 23.9202 163.114 23.2574 163.885 22.7839C164.657 22.3056 165.564 22.0665 166.605 22.0665C167.278 22.0665 167.912 22.1754 168.509 22.3932C169.11 22.6063 169.641 22.9378 170.1 23.3876C170.564 23.8374 170.928 24.4103 171.194 25.1063C171.459 25.7976 171.591 26.6215 171.591 27.5779V28.3663H162.65V26.6333H169.127C169.122 26.1409 169.016 25.7029 168.807 25.3194C168.599 24.9311 168.308 24.6257 167.934 24.4032C167.564 24.1806 167.133 24.0694 166.641 24.0694C166.115 24.0694 165.654 24.1972 165.256 24.4529C164.858 24.7038 164.548 25.0353 164.326 25.4472C164.108 25.8544 163.997 26.3019 163.992 26.7896V28.3023C163.992 28.9368 164.108 29.4813 164.34 29.9359C164.572 30.3857 164.896 30.7313 165.313 30.9728C165.73 31.2095 166.217 31.3279 166.776 31.3279C167.15 31.3279 167.489 31.2758 167.792 31.1717C168.095 31.0628 168.357 30.9041 168.58 30.6958C168.802 30.4875 168.971 30.2294 169.084 29.9217L171.485 30.1915C171.333 30.826 171.044 31.38 170.618 31.8535C170.197 32.3222 169.657 32.6868 168.999 32.9472C168.341 33.2029 167.588 33.3307 166.74 33.3307ZM176.337 26.7256V33.1177H173.766V22.2086H176.224V24.0623H176.352C176.603 23.4515 177.003 22.9662 177.552 22.6063C178.106 22.2465 178.79 22.0665 179.604 22.0665C180.357 22.0665 181.013 22.2275 181.572 22.5495C182.135 22.8715 182.571 23.3378 182.879 23.9486C183.191 24.5594 183.345 25.3004 183.34 26.1717V33.1177H180.769V26.5694C180.769 25.8402 180.58 25.2697 180.201 24.8577C179.827 24.4458 179.308 24.2398 178.646 24.2398C178.196 24.2398 177.796 24.3393 177.445 24.5381C177.1 24.7323 176.827 25.014 176.629 25.3833C176.434 25.7526 176.337 26.2001 176.337 26.7256ZM191.401 22.2086V24.1972H185.13V22.2086H191.401ZM186.678 19.5949H189.249V29.8364C189.249 30.1821 189.301 30.4472 189.406 30.6319C189.514 30.8118 189.656 30.9349 189.832 31.0012C190.007 31.0675 190.201 31.1006 190.414 31.1006C190.575 31.1006 190.722 31.0888 190.854 31.0651C190.992 31.0414 191.096 31.0201 191.167 31.0012L191.6 33.0111C191.463 33.0585 191.266 33.1106 191.011 33.1674C190.76 33.2242 190.452 33.2574 190.087 33.2668C189.443 33.2858 188.863 33.1887 188.347 32.9756C187.831 32.7578 187.422 32.4217 187.119 31.9671C186.82 31.5126 186.674 30.9444 186.678 30.2626V19.5949ZM202.017 25.0921L199.674 25.3478C199.607 25.111 199.491 24.8885 199.326 24.6802C199.165 24.4718 198.947 24.3038 198.672 24.1759C198.398 24.0481 198.061 23.9842 197.664 23.9842C197.129 23.9842 196.679 24.1002 196.314 24.3322C195.954 24.5642 195.777 24.8648 195.782 25.2342C195.777 25.5514 195.893 25.8094 196.13 26.0083C196.371 26.2072 196.769 26.3705 197.323 26.4984L199.184 26.8961C200.216 27.1186 200.983 27.4714 201.485 27.9543C201.991 28.4373 202.247 29.0694 202.252 29.8506C202.247 30.5372 202.046 31.1432 201.648 31.6688C201.255 32.1896 200.708 32.5968 200.007 32.8904C199.307 33.184 198.502 33.3307 197.593 33.3307C196.257 33.3307 195.183 33.0514 194.368 32.4927C193.554 31.9292 193.069 31.1456 192.912 30.1418L195.419 29.9003C195.533 30.3928 195.775 30.7645 196.144 31.0154C196.513 31.2663 196.994 31.3918 197.586 31.3918C198.196 31.3918 198.686 31.2663 199.056 31.0154C199.43 30.7645 199.617 30.4543 199.617 30.085C199.617 29.7725 199.496 29.5145 199.255 29.3109C199.018 29.1073 198.649 28.951 198.147 28.8421L196.286 28.4515C195.239 28.2337 194.465 27.8667 193.963 27.3506C193.462 26.8298 193.213 26.1717 193.218 25.3762C193.213 24.7038 193.395 24.1215 193.765 23.629C194.139 23.1319 194.657 22.7484 195.32 22.4785C195.988 22.2038 196.757 22.0665 197.628 22.0665C198.907 22.0665 199.913 22.3388 200.647 22.8833C201.385 23.4278 201.842 24.1641 202.017 25.0921Z" fill="white"/>
<g clip-path="url(#clip0_2035_353)">
<path d="M11.0417 0.612894C10.5558 1.07418 10.1583 1.91289 10.1583 2.49999C10.1583 3.50644 10.07 3.54838 6.84583 3.54838C5.035 3.54838 3.0475 3.75805 2.42917 4.0516C0.0441667 5.09999 0 5.3516 0 24.6C0 41.4161 0.0441667 42.4226 0.883333 43.6806C1.325 44.3935 2.12 45.2322 2.60583 45.4839C3.18 45.7774 6.84583 45.8613 13.1175 45.8193C21.3325 45.6935 22.7458 45.6097 22.7458 45.0645C22.7458 44.5193 21.3325 44.3935 13.4267 44.2258C5.035 44.0581 3.975 43.9322 3.13583 43.2193C2.20833 42.4226 2.20833 42.129 2.20833 27.7871V13.1935H26.5H50.7917V27.7871C50.7917 42.129 50.7917 42.4226 49.8642 43.2193C49.025 43.9322 47.965 44.0581 39.5733 44.2258C31.6675 44.3935 30.2542 44.5193 30.2542 45.0645C30.2542 45.6097 31.6675 45.6935 39.8825 45.8193C46.1542 45.8613 49.82 45.7774 50.3942 45.4839C50.88 45.2322 51.675 44.3935 52.1167 43.6806C52.9558 42.4226 53 41.4161 53 24.6C53 5.3516 52.9558 5.09999 50.5708 4.0516C49.9525 3.75805 47.965 3.54838 46.1542 3.54838C42.93 3.54838 42.8417 3.50644 42.8417 2.49999C42.8417 0.109668 39.3525 -1.10646 37.5417 0.612894C37.0558 1.07418 36.6583 1.91289 36.6583 2.49999C36.6583 3.54838 36.6142 3.54838 33.125 3.54838C29.6358 3.54838 29.5917 3.54838 29.5917 2.49999C29.5917 1.91289 29.1942 1.07418 28.7083 0.612894C26.8975 -1.10646 23.4083 0.109668 23.4083 2.49999C23.4083 3.54838 23.3642 3.54838 19.875 3.54838C16.3858 3.54838 16.3417 3.54838 16.3417 2.49999C16.3417 1.07418 14.8842 -0.225816 13.25 -0.225816C12.4992 -0.225816 11.5275 0.151603 11.0417 0.612894ZM14.045 4.51289C14.1775 7.11289 14.0892 7.32257 13.25 7.32257C12.455 7.32257 12.3667 7.07096 12.3667 4.68064C12.3667 3.21289 12.4992 1.87096 12.6758 1.70322C13.4267 0.990313 13.9125 1.95483 14.045 4.51289ZM27.295 4.51289C27.4275 7.11289 27.3392 7.32257 26.5 7.32257C25.705 7.32257 25.6167 7.07096 25.6167 4.68064C25.6167 3.21289 25.7492 1.87096 25.9258 1.70322C26.6767 0.990313 27.1625 1.95483 27.295 4.51289ZM40.545 4.51289C40.6775 7.11289 40.5892 7.32257 39.75 7.32257C38.955 7.32257 38.8667 7.07096 38.8667 4.68064C38.8667 3.21289 38.9992 1.87096 39.1758 1.70322C39.9267 0.990313 40.4125 1.95483 40.545 4.51289ZM10.1583 6.56773C10.1583 7.8258 11.8367 9.41934 13.2058 9.41934C14.6192 9.41934 16.3417 7.86773 16.3417 6.60967C16.3417 5.68709 16.4742 5.64515 19.875 5.64515C23.2317 5.64515 23.4083 5.68709 23.4083 6.56773C23.4083 7.8258 25.0867 9.41934 26.4558 9.41934C27.8692 9.41934 29.5917 7.86773 29.5917 6.60967C29.5917 5.68709 29.7242 5.64515 33.125 5.64515C36.4817 5.64515 36.6583 5.68709 36.6583 6.56773C36.6583 7.8258 38.3367 9.41934 39.7058 9.41934C41.1192 9.41934 42.8417 7.86773 42.8417 6.60967C42.8417 5.68709 42.9742 5.64515 46.2867 5.64515C48.3625 5.64515 49.9525 5.85483 50.2617 6.14838C50.5708 6.44193 50.7917 7.74193 50.7917 9.08386V11.5161H26.5H2.20833V9.08386C2.20833 7.74193 2.42917 6.44193 2.73833 6.14838C3.0475 5.85483 4.6375 5.64515 6.71333 5.64515C9.98167 5.64515 10.1583 5.68709 10.1583 6.56773Z" fill="white"/>
<path d="M6.27251 17.3032C5.87501 17.5548 5.74251 18.8548 5.83084 22.2516L5.96334 26.8225L10.5567 26.9483C13.5158 27.0322 15.3267 26.9064 15.7242 26.5709C16.5192 25.9419 16.6075 18.2258 15.8125 17.4709C15.1942 16.8838 7.20001 16.758 6.27251 17.3032ZM14.1342 22V24.9354H11.0425H7.95084V22V19.0645H11.0425H14.1342V22Z" fill="white"/>
<path d="M21.7306 17.4709C21.1564 18.0161 20.9797 25.1451 21.4656 26.3613C21.6864 26.9064 22.5256 27.0322 26.2356 27.0322C29.1506 27.0322 30.9172 26.8645 31.2706 26.529C31.9772 25.858 31.9772 18.1419 31.2706 17.4709C30.5639 16.8 22.4372 16.8 21.7306 17.4709ZM29.5922 22V24.9355H26.5006H23.4089V22V19.0645H26.5006H29.5922V22Z" fill="white"/>
<path d="M37.1887 17.4709C36.3937 18.2258 36.482 25.9419 37.277 26.5709C37.6745 26.9064 39.4854 27.0322 42.4445 26.9483L47.0379 26.8225L47.1704 22.2516C47.2587 18.8548 47.1262 17.5548 46.7287 17.3032C45.8012 16.758 37.807 16.8838 37.1887 17.4709ZM45.0504 22V24.9354H41.9587H38.867V22V19.0645H41.9587H45.0504V22Z" fill="white"/>
<path d="M6.05135 30.6806C5.87469 30.8064 5.74219 32.9871 5.74219 35.4613C5.74219 39.1516 5.87469 39.9903 6.44885 40.2C7.72969 40.6613 15.238 40.4935 15.8122 39.9484C16.5189 39.2774 16.5189 31.5613 15.8122 30.8903C15.238 30.3452 6.58135 30.1355 6.05135 30.6806ZM14.1339 35.4193V38.3548H11.0422H7.95052V35.4193V32.4839H11.0422H14.1339V35.4193Z" fill="white"/>
<path d="M21.7292 30.8903C21.0226 31.5613 21.0226 39.2774 21.7292 39.9484C22.4359 40.6193 30.5626 40.6193 31.2692 39.9484C31.9759 39.2774 31.9759 31.5613 31.2692 30.8903C30.5626 30.2193 22.4359 30.2193 21.7292 30.8903ZM29.5909 35.4193V38.3548H26.4992H23.4076V35.4193V32.4839H26.4992H29.5909V35.4193Z" fill="white"/>
<path d="M37.1893 30.8903C36.4826 31.5613 36.4384 39.2355 37.1893 39.9484C37.8076 40.5355 45.8018 40.6613 46.7293 40.1161C47.1268 39.8645 47.2593 38.5645 47.1709 35.1677L47.0384 30.5968L42.4009 30.471C39.1768 30.3871 37.5868 30.5129 37.1893 30.8903ZM45.0509 35.4193V38.3548H41.9593H38.8676V35.4193V32.4839H41.9593H45.0509V35.4193Z" fill="white"/>
<path d="M25.6172 45.0645C25.6172 45.6096 25.9264 45.9032 26.5005 45.9032C27.0747 45.9032 27.3839 45.6096 27.3839 45.0645C27.3839 44.5193 27.0747 44.2258 26.5005 44.2258C25.9264 44.2258 25.6172 44.5193 25.6172 45.0645Z" fill="white"/>
</g>
<defs>
<clipPath id="clip0_2035_353">
<rect width="53" height="48" fill="white"/>
</clipPath>
</defs>
</svg>
