<svg width="175" height="52" viewBox="0 0 175 52" fill="none" xmlns="http://www.w3.org/2000/svg">
<path d="M71.4347 21.4545H74.6591L78.9773 31.9943H79.1477L83.4659 21.4545H86.6903V36H84.1619V26.0071H84.027L80.0071 35.9574H78.1179L74.098 25.9858H73.9631V36H71.4347V21.4545ZM91.044 40.0909C90.6937 40.0909 90.3693 40.0625 90.071 40.0057C89.7775 39.9536 89.5431 39.892 89.3679 39.821L89.9645 37.8182C90.3385 37.9271 90.6723 37.9792 90.9659 37.9744C91.2595 37.9697 91.5175 37.8774 91.7401 37.6974C91.9673 37.5223 92.1591 37.2287 92.3153 36.8168L92.5355 36.2273L88.5795 25.0909H91.3068L93.821 33.3295H93.9347L96.456 25.0909H99.1903L94.8224 37.321C94.6188 37.8987 94.349 38.3935 94.0128 38.8054C93.6766 39.2221 93.2647 39.5393 92.777 39.7571C92.294 39.9796 91.7164 40.0909 91.044 40.0909ZM115.788 26.0994C115.67 25.7159 115.507 25.3726 115.298 25.0696C115.095 24.7618 114.848 24.4991 114.56 24.2812C114.276 24.0634 113.949 23.9001 113.58 23.7912C113.21 23.6776 112.808 23.6207 112.372 23.6207C111.591 23.6207 110.895 23.8172 110.284 24.2102C109.673 24.6032 109.193 25.1809 108.842 25.9432C108.497 26.7008 108.324 27.6241 108.324 28.7131C108.324 29.8116 108.497 30.742 108.842 31.5043C109.188 32.2666 109.669 32.8466 110.284 33.2443C110.9 33.6373 111.615 33.8338 112.429 33.8338C113.168 33.8338 113.807 33.6918 114.347 33.4077C114.891 33.1236 115.31 32.7211 115.604 32.2003C115.897 31.6747 116.044 31.0592 116.044 30.3537L116.641 30.446H112.692V28.3864H118.594V30.1335C118.594 31.3788 118.329 32.456 117.798 33.3651C117.268 34.2741 116.539 34.9749 115.611 35.4673C114.683 35.955 113.617 36.1989 112.415 36.1989C111.075 36.1989 109.898 35.8982 108.885 35.2969C107.876 34.6908 107.088 33.8314 106.52 32.7188C105.956 31.6013 105.675 30.2756 105.675 28.7415C105.675 27.5672 105.84 26.5185 106.172 25.5952C106.508 24.6719 106.977 23.8883 107.578 23.2443C108.179 22.5956 108.885 22.1032 109.695 21.767C110.504 21.4261 111.385 21.2557 112.337 21.2557C113.142 21.2557 113.892 21.3741 114.588 21.6108C115.284 21.8428 115.902 22.1742 116.442 22.6051C116.986 23.036 117.434 23.5473 117.784 24.1392C118.134 24.7311 118.364 25.3845 118.473 26.0994H115.788ZM124.167 36.2202C123.476 36.2202 122.853 36.0971 122.299 35.8509C121.75 35.5999 121.315 35.2306 120.993 34.7429C120.675 34.2552 120.517 33.6539 120.517 32.9389C120.517 32.3234 120.63 31.8144 120.858 31.4119C121.085 31.0095 121.395 30.6875 121.788 30.446C122.181 30.2045 122.624 30.0223 123.116 29.8991C123.613 29.7713 124.127 29.679 124.657 29.6222C125.297 29.5559 125.815 29.4967 126.213 29.4446C126.61 29.3878 126.899 29.3026 127.079 29.1889C127.264 29.0705 127.356 28.8883 127.356 28.642V28.5994C127.356 28.0644 127.198 27.6501 126.88 27.3565C126.563 27.063 126.106 26.9162 125.51 26.9162C124.88 26.9162 124.38 27.0535 124.011 27.3281C123.646 27.6027 123.4 27.9271 123.272 28.3011L120.872 27.9602C121.061 27.2973 121.374 26.7434 121.809 26.2983C122.245 25.8485 122.778 25.5123 123.407 25.2898C124.037 25.0625 124.733 24.9489 125.495 24.9489C126.021 24.9489 126.544 25.0104 127.065 25.1335C127.586 25.2566 128.062 25.4602 128.493 25.7443C128.923 26.0237 129.269 26.4048 129.529 26.8878C129.795 27.3707 129.927 27.9744 129.927 28.6989V36H127.456V34.5014H127.37C127.214 34.8045 126.994 35.0885 126.71 35.3537C126.431 35.6141 126.078 35.8248 125.652 35.9858C125.23 36.142 124.735 36.2202 124.167 36.2202ZM124.835 34.331C125.351 34.331 125.798 34.2292 126.177 34.0256C126.556 33.8172 126.847 33.5426 127.051 33.2017C127.259 32.8608 127.363 32.4891 127.363 32.0866V30.8011C127.283 30.8674 127.145 30.929 126.951 30.9858C126.762 31.0426 126.549 31.0923 126.312 31.1349C126.075 31.1776 125.841 31.2154 125.609 31.2486C125.377 31.2817 125.176 31.3101 125.005 31.3338C124.622 31.3859 124.279 31.4711 123.975 31.5895C123.672 31.7079 123.433 31.8736 123.258 32.0866C123.083 32.295 122.995 32.5649 122.995 32.8963C122.995 33.3698 123.168 33.7273 123.514 33.9688C123.859 34.2102 124.3 34.331 124.835 34.331ZM132.512 36V25.0909H135.005V26.9091H135.119C135.318 26.2794 135.659 25.794 136.142 25.4531C136.629 25.1075 137.186 24.9347 137.811 24.9347C137.953 24.9347 138.111 24.9418 138.287 24.956C138.467 24.9654 138.616 24.982 138.734 25.0057V27.3707C138.625 27.3329 138.452 27.2997 138.216 27.2713C137.984 27.2382 137.759 27.2216 137.541 27.2216C137.072 27.2216 136.651 27.3234 136.277 27.527C135.907 27.7259 135.616 28.0028 135.403 28.358C135.19 28.7131 135.083 29.1226 135.083 29.5866V36H132.512ZM143.386 36.2202C142.695 36.2202 142.072 36.0971 141.518 35.8509C140.969 35.5999 140.533 35.2306 140.211 34.7429C139.894 34.2552 139.735 33.6539 139.735 32.9389C139.735 32.3234 139.849 31.8144 140.076 31.4119C140.304 31.0095 140.614 30.6875 141.007 30.446C141.4 30.2045 141.842 30.0223 142.335 29.8991C142.832 29.7713 143.346 29.679 143.876 29.6222C144.515 29.5559 145.034 29.4967 145.431 29.4446C145.829 29.3878 146.118 29.3026 146.298 29.1889C146.483 29.0705 146.575 28.8883 146.575 28.642V28.5994C146.575 28.0644 146.416 27.6501 146.099 27.3565C145.782 27.063 145.325 26.9162 144.728 26.9162C144.099 26.9162 143.599 27.0535 143.23 27.3281C142.865 27.6027 142.619 27.9271 142.491 28.3011L140.091 27.9602C140.28 27.2973 140.592 26.7434 141.028 26.2983C141.464 25.8485 141.996 25.5123 142.626 25.2898C143.256 25.0625 143.952 24.9489 144.714 24.9489C145.24 24.9489 145.763 25.0104 146.284 25.1335C146.805 25.2566 147.28 25.4602 147.711 25.7443C148.142 26.0237 148.488 26.4048 148.748 26.8878C149.013 27.3707 149.146 27.9744 149.146 28.6989V36H146.674V34.5014H146.589C146.433 34.8045 146.213 35.0885 145.929 35.3537C145.649 35.6141 145.297 35.8248 144.87 35.9858C144.449 36.142 143.954 36.2202 143.386 36.2202ZM144.054 34.331C144.57 34.331 145.017 34.2292 145.396 34.0256C145.775 33.8172 146.066 33.5426 146.27 33.2017C146.478 32.8608 146.582 32.4891 146.582 32.0866V30.8011C146.502 30.8674 146.364 30.929 146.17 30.9858C145.981 31.0426 145.768 31.0923 145.531 31.1349C145.294 31.1776 145.06 31.2154 144.828 31.2486C144.596 31.2817 144.395 31.3101 144.224 31.3338C143.841 31.3859 143.497 31.4711 143.194 31.5895C142.891 31.7079 142.652 31.8736 142.477 32.0866C142.302 32.295 142.214 32.5649 142.214 32.8963C142.214 33.3698 142.387 33.7273 142.733 33.9688C143.078 34.2102 143.519 34.331 144.054 34.331ZM156.475 40.3182C155.552 40.3182 154.759 40.1927 154.096 39.9418C153.433 39.6955 152.901 39.3641 152.498 38.9474C152.096 38.5308 151.816 38.0691 151.66 37.5625L153.975 37.0014C154.08 37.2145 154.231 37.4252 154.43 37.6335C154.629 37.8466 154.896 38.0218 155.233 38.1591C155.574 38.3011 156.002 38.3722 156.518 38.3722C157.247 38.3722 157.851 38.1946 158.329 37.8395C158.807 37.4891 159.047 36.9115 159.047 36.1065V34.0398H158.919C158.786 34.3049 158.592 34.5772 158.336 34.8565C158.085 35.1359 157.752 35.3703 157.335 35.5597C156.923 35.7491 156.404 35.8438 155.779 35.8438C154.941 35.8438 154.181 35.6473 153.5 35.2543C152.823 34.8565 152.283 34.2647 151.88 33.4787C151.483 32.688 151.284 31.6984 151.284 30.5099C151.284 29.312 151.483 28.3011 151.88 27.4773C152.283 26.6487 152.825 26.0213 153.507 25.5952C154.189 25.1643 154.949 24.9489 155.787 24.9489C156.426 24.9489 156.951 25.0578 157.363 25.2756C157.78 25.4886 158.111 25.7467 158.358 26.0497C158.604 26.348 158.791 26.6297 158.919 26.8949H159.061V25.0909H161.596V36.1776C161.596 37.1103 161.374 37.8821 160.929 38.4929C160.484 39.1037 159.875 39.5606 159.103 39.8636C158.332 40.1667 157.456 40.3182 156.475 40.3182ZM156.497 33.8267C157.041 33.8267 157.505 33.6941 157.889 33.429C158.272 33.1638 158.564 32.7827 158.762 32.2855C158.961 31.7884 159.061 31.1918 159.061 30.4957C159.061 29.8092 158.961 29.2079 158.762 28.6918C158.568 28.1757 158.279 27.7756 157.896 27.4915C157.517 27.2027 157.051 27.0582 156.497 27.0582C155.924 27.0582 155.446 27.2074 155.062 27.5057C154.679 27.804 154.39 28.2135 154.196 28.7344C154.002 29.2505 153.904 29.8376 153.904 30.4957C153.904 31.1634 154.002 31.7481 154.196 32.25C154.395 32.7472 154.686 33.1354 155.069 33.4148C155.458 33.6894 155.933 33.8267 156.497 33.8267ZM169.061 36.2131C167.967 36.2131 167.022 35.9858 166.227 35.5312C165.436 35.072 164.828 34.4233 164.402 33.5852C163.975 32.7424 163.762 31.7505 163.762 30.6094C163.762 29.4872 163.975 28.5024 164.402 27.6548C164.833 26.8026 165.434 26.1397 166.206 25.6662C166.977 25.188 167.884 24.9489 168.926 24.9489C169.598 24.9489 170.233 25.0578 170.829 25.2756C171.431 25.4886 171.961 25.8201 172.42 26.2699C172.884 26.7197 173.249 27.2926 173.514 27.9886C173.779 28.6799 173.912 29.5038 173.912 30.4602V31.2486H164.97V29.5156H171.447C171.442 29.0232 171.336 28.5852 171.127 28.2017C170.919 27.8134 170.628 27.508 170.254 27.2855C169.885 27.063 169.454 26.9517 168.961 26.9517C168.436 26.9517 167.974 27.0795 167.576 27.3352C167.179 27.5862 166.868 27.9176 166.646 28.3295C166.428 28.7367 166.317 29.1842 166.312 29.6719V31.1847C166.312 31.8191 166.428 32.3636 166.66 32.8182C166.892 33.268 167.217 33.6136 167.633 33.8551C168.05 34.0919 168.538 34.2102 169.096 34.2102C169.47 34.2102 169.809 34.1581 170.112 34.054C170.415 33.9451 170.678 33.7865 170.9 33.5781C171.123 33.3698 171.291 33.1117 171.404 32.804L173.805 33.0739C173.654 33.7083 173.365 34.2623 172.939 34.7358C172.517 35.2045 171.977 35.5691 171.319 35.8295C170.661 36.0852 169.908 36.2131 169.061 36.2131Z" fill="white"/>
<path d="M10.8333 50H2V8L28.5 2L55 8V50H46.1667M10.8333 50H46.1667M10.8333 50V38M46.1667 50V38M10.8333 38V26M10.8333 38H46.1667M46.1667 38V26M10.8333 26V14H46.1667V26M10.8333 26H46.1667" stroke="white" stroke-width="3" stroke-linecap="round" stroke-linejoin="round"/>
</svg>
