<svg width="60" height="60" viewBox="0 0 60 60" fill="none" xmlns="http://www.w3.org/2000/svg">
<path d="M30.1667 2C14.6106 2 2 14.536 2 30C2 45.4638 14.6106 58 30.1667 58C45.7226 58 58.3333 45.4638 58.3333 30C58.3333 14.536 45.7226 2 30.1667 2Z" stroke="white" stroke-width="3" stroke-linecap="round" stroke-linejoin="round"/>
<path d="M8.39648 47.768C8.39648 47.768 14.6749 39.8 30.1665 39.8C45.6582 39.8 51.9368 47.768 51.9368 47.768" stroke="white" stroke-width="3" stroke-linecap="round" stroke-linejoin="round"/>
<path d="M30.1668 30C34.8337 30 38.6168 26.2393 38.6168 21.6C38.6168 16.9608 34.8337 13.2 30.1668 13.2C25.4999 13.2 21.7168 16.9608 21.7168 21.6C21.7168 26.2393 25.4999 30 30.1668 30Z" stroke="white" stroke-width="3" stroke-linecap="round" stroke-linejoin="round"/>
</svg>
